<svg width="130" height="130" viewBox="0 0 130 130" fill="none" xmlns="http://www.w3.org/2000/svg">
<path d="M71.802 15.9117C70.5843 15.7644 69.5989 15.4168 68.8459 14.869C68.1062 14.3228 67.58 13.6212 67.2674 12.7641C66.9548 11.907 66.8435 10.94 66.9336 9.86297C66.986 9.31866 67.0499 8.73545 67.1252 8.11332C67.2005 7.49119 67.2792 6.89634 67.3613 6.32876C67.5308 5.26139 67.8695 4.34882 68.3776 3.59104C68.8857 2.83326 69.564 2.27741 70.4127 1.92347C71.2746 1.57115 72.3145 1.46867 73.5323 1.61606C74.4456 1.72659 75.2312 1.94926 75.8891 2.28406C76.5469 2.61886 77.0753 3.02529 77.4741 3.50333C77.8861 3.98297 78.1792 4.50195 78.3534 5.06026C78.5291 5.60532 78.5966 6.15743 78.5558 6.71658C78.5546 6.83731 78.5029 6.93178 78.4006 6.99999C78.3116 7.0698 78.2075 7.09749 78.0884 7.08307L76.9964 6.95091C76.8772 6.93649 76.7753 6.89058 76.6907 6.81319C76.6193 6.73739 76.5741 6.61105 76.5552 6.43417C76.4552 5.37447 76.1173 4.61504 75.5416 4.15588C74.9792 3.69832 74.2347 3.41348 73.3081 3.30134C72.2492 3.17318 71.3718 3.3759 70.676 3.90949C69.9818 4.42985 69.5281 5.34867 69.3149 6.66593C69.1439 7.74654 69.0093 8.85843 68.9112 10.0016C68.804 11.3317 69.0246 12.3388 69.573 13.023C70.123 13.6939 70.9275 14.0935 71.9865 14.2216C72.913 14.3338 73.704 14.2348 74.3593 13.9246C75.0279 13.616 75.5372 12.9591 75.8872 11.9539C75.9477 11.7866 76.0217 11.6747 76.1091 11.6181C76.2098 11.5632 76.3197 11.5429 76.4388 11.5573L77.5309 11.6895C77.65 11.7039 77.7445 11.7556 77.8143 11.8446C77.8973 11.9353 77.925 12.0393 77.8974 12.1569C77.8036 12.7096 77.6056 13.2363 77.3032 13.7369C77.0025 14.2243 76.5948 14.6518 76.0803 15.0193C75.579 15.3884 74.9689 15.6571 74.2502 15.8252C73.5314 15.9934 72.7154 16.0223 71.802 15.9117Z" fill="#D3C0E9"/>
<path d="M83.3146 18.9389C82.2557 18.535 81.4152 18.0075 80.793 17.3564C80.1756 16.6929 79.8063 15.9027 79.685 14.986C79.5684 14.0568 79.7062 13.0034 80.0982 11.8258C80.2948 11.2729 80.4882 10.7473 80.6782 10.249C80.873 9.73818 81.0812 9.21109 81.3027 8.66769C81.7897 7.54056 82.3899 6.67779 83.1033 6.07939C83.8339 5.47329 84.6504 5.12827 85.5529 5.04436C86.4726 4.95273 87.437 5.09934 88.4461 5.48419C89.4677 5.87378 90.2848 6.40659 90.8974 7.08261C91.5273 7.75093 91.913 8.55443 92.0544 9.49312C92.2006 10.4193 92.0738 11.4627 91.6741 12.6231C91.4899 13.1807 91.3005 13.7149 91.1057 14.2257C90.9156 14.724 90.7036 15.2425 90.4696 15.7812C89.9904 16.9255 89.3917 17.8031 88.6735 18.414C87.9725 19.0171 87.1708 19.3606 86.2683 19.4446C85.3706 19.516 84.386 19.3475 83.3146 18.9389ZM83.9204 17.3505C84.8797 17.7163 85.7676 17.7267 86.5842 17.3817C87.4132 17.0414 88.0973 16.2392 88.6365 14.975C88.8753 14.4239 89.0778 13.9304 89.2441 13.4943C89.4151 13.0458 89.5927 12.5428 89.7769 11.9851C90.0798 11.116 90.1839 10.3566 90.0892 9.70688C90.007 9.0619 89.7705 8.52219 89.3796 8.08773C88.9888 7.65328 88.4757 7.31489 87.8403 7.07258C87.2299 6.83978 86.6342 6.7553 86.0533 6.81917C85.4724 6.88303 84.9303 7.1258 84.427 7.54746C83.9362 7.97388 83.5081 8.60977 83.1429 9.45512C82.9214 9.99852 82.7251 10.4945 82.5541 10.943C82.3878 11.379 82.2039 11.8797 82.0026 12.445C81.563 13.7472 81.5392 14.8013 81.9311 15.6071C82.323 16.413 82.9861 16.9941 83.9204 17.3505Z" fill="#D3C0E9"/>
<path d="M90.3051 21.9634C90.1851 21.8792 90.1153 21.7813 90.0958 21.6699C90.0839 21.5475 90.1163 21.4318 90.1929 21.3227L97.6954 10.6327C97.7796 10.5126 97.8775 10.4428 97.9889 10.4233C98.108 10.3929 98.2276 10.4198 98.3477 10.504L99.1007 11.0325C99.2317 11.1244 99.3069 11.2261 99.3265 11.3375C99.3536 11.4381 99.3612 11.5085 99.3491 11.5489L98.9247 23.7123L104.669 15.527C104.754 15.4069 104.851 15.3371 104.963 15.3176C105.082 15.2872 105.202 15.3141 105.322 15.3983L106.107 15.9498C106.227 16.0341 106.293 16.1374 106.305 16.2597C106.336 16.3788 106.309 16.4984 106.225 16.6184L98.7336 27.292C98.657 27.4012 98.5537 27.4671 98.4236 27.4899C98.3045 27.5204 98.1904 27.4973 98.0813 27.4207L97.2955 26.8692C97.1754 26.785 97.1056 26.6871 97.0861 26.5757C97.0775 26.4719 97.0699 26.4014 97.0634 26.3643L97.4468 14.2943L91.7481 22.4141C91.6715 22.5232 91.5682 22.5892 91.4382 22.612C91.3267 22.6315 91.211 22.5992 91.0909 22.5149L90.3051 21.9634Z" fill="#D3C0E9"/>
<path d="M102.151 31.8793C102.062 31.7806 102.015 31.6698 102.012 31.547C102.027 31.425 102.084 31.3192 102.183 31.2296L110.889 23.3244L108.308 20.4815C108.218 20.3828 108.172 20.272 108.168 20.1491C108.184 20.0271 108.241 19.9213 108.339 19.8317L108.961 19.2671C109.07 19.1685 109.181 19.1219 109.294 19.1273C109.425 19.1337 109.536 19.1862 109.626 19.285L116.106 26.4219C116.205 26.5305 116.246 26.6458 116.231 26.7678C116.234 26.8906 116.182 27.0014 116.073 27.1L115.451 27.6646C115.353 27.7542 115.237 27.7959 115.106 27.7895C114.993 27.7841 114.887 27.727 114.788 27.6185L112.22 24.7903L103.514 32.6955C103.415 32.7851 103.3 32.8267 103.168 32.8204C103.055 32.8149 102.949 32.7579 102.85 32.6493L102.151 31.8793Z" fill="#D3C0E9"/>
<path d="M105.693 35.8692C105.64 35.7766 105.628 35.6758 105.658 35.5666C105.688 35.4574 105.749 35.3763 105.841 35.3232C105.899 35.2901 105.966 35.2594 106.042 35.2312L119.735 33.0992C119.877 33.0792 120.006 33.0898 120.122 33.131C120.238 33.1721 120.342 33.2737 120.435 33.4357L121.112 34.6155C121.198 34.7659 121.229 34.9015 121.206 35.0222C121.19 35.1546 121.137 35.277 121.048 35.3896L112.278 46.1105C112.222 46.1734 112.165 46.2214 112.107 46.2546C112.015 46.3076 111.914 46.3193 111.805 46.2897C111.696 46.2601 111.615 46.199 111.562 46.1065L111.054 45.2216C110.975 45.0827 110.95 44.9587 110.979 44.8496C111.016 44.7519 111.056 44.675 111.101 44.6187L113.017 42.252L109.755 36.5608L106.744 37.0188C106.68 37.0404 106.593 37.0364 106.484 37.0067C106.374 36.9771 106.28 36.8929 106.2 36.7541L105.693 35.8692ZM111.536 36.2086L114.221 40.8935L119.038 35.0202L111.536 36.2086Z" fill="#D3C0E9"/>
<path d="M112.917 52.1153C112.579 50.9361 112.516 49.8932 112.727 48.9864C112.943 48.0925 113.384 47.3348 114.052 46.7134C114.72 46.092 115.568 45.6133 116.595 45.2773C117.117 45.1139 117.679 44.9458 118.282 44.7732C118.884 44.6005 119.463 44.4416 120.017 44.2965C121.067 44.0374 122.039 43.9945 122.935 44.1677C123.831 44.341 124.607 44.7497 125.263 45.3938C125.923 46.0508 126.422 46.9688 126.759 48.148C127.013 49.0324 127.113 49.8428 127.061 50.5791C127.008 51.3154 126.84 51.9602 126.554 52.5135C126.273 53.0797 125.909 53.5516 125.462 53.9292C125.028 54.3032 124.546 54.5801 124.015 54.7601C123.903 54.8059 123.796 54.795 123.694 54.7273C123.595 54.6725 123.529 54.5874 123.496 54.472L123.192 53.4146C123.159 53.2992 123.162 53.1875 123.2 53.0794C123.242 52.9842 123.341 52.8934 123.497 52.8072C124.434 52.3028 125.002 51.6961 125.201 50.9872C125.404 50.291 125.377 49.4944 125.12 48.5972C124.826 47.5718 124.298 46.8424 123.536 46.4089C122.786 45.9718 121.763 45.9113 120.467 46.2274C119.405 46.4902 118.328 46.7987 117.237 47.1531C115.97 47.5717 115.128 48.1667 114.711 48.9381C114.307 49.7058 114.252 50.6024 114.545 51.6277C114.803 52.525 115.202 53.2151 115.742 53.6982C116.287 54.194 117.09 54.4077 118.152 54.339C118.33 54.3297 118.462 54.3543 118.548 54.4129C118.638 54.4842 118.699 54.5776 118.732 54.6929L119.035 55.7504C119.068 55.8657 119.057 55.9729 119.002 56.0718C118.951 56.1836 118.866 56.2496 118.747 56.2698C118.201 56.3985 117.639 56.4209 117.06 56.3371C116.494 56.2497 115.942 56.0404 115.403 55.7094C114.868 55.3911 114.383 54.9337 113.949 54.337C113.514 53.7403 113.17 52.9997 112.917 52.1153Z" fill="#D3C0E9"/>
<path d="M114.745 62.4103C114.738 62.2772 114.772 62.1619 114.847 62.0644C114.936 61.9795 115.047 61.9336 115.18 61.9265L126.923 61.3005L126.719 57.466C126.712 57.3328 126.746 57.2175 126.821 57.1201C126.91 57.0352 127.021 56.9892 127.154 56.9821L127.993 56.9374C128.139 56.9296 128.254 56.9635 128.339 57.0392C128.437 57.1274 128.489 57.2381 128.496 57.3712L129.01 66.9976C129.017 67.144 128.977 67.2597 128.888 67.3445C128.813 67.442 128.702 67.4946 128.556 67.5024L127.717 67.5471C127.584 67.5542 127.468 67.5137 127.37 67.4254C127.286 67.3498 127.24 67.2388 127.232 67.0923L127.029 63.2777L115.285 63.9037C115.152 63.9108 115.037 63.8702 114.938 63.782C114.854 63.7063 114.808 63.5953 114.8 63.4488L114.745 62.4103Z" fill="#D3C0E9"/>
<path d="M113.728 75.9327C113.769 75.7919 113.839 75.6943 113.938 75.6398C114.05 75.589 114.17 75.5823 114.298 75.6195L126.838 79.2676C126.979 79.3086 127.077 79.3786 127.131 79.4778C127.198 79.5807 127.212 79.7026 127.171 79.8434L124.891 87.6785C124.85 87.8194 124.774 87.9152 124.662 87.9659C124.563 88.0204 124.443 88.0271 124.302 87.9862L123.534 87.7627C123.393 87.7217 123.295 87.6517 123.241 87.5525C123.186 87.4533 123.179 87.3333 123.22 87.1925L125.086 80.7784L120.612 79.4767L118.858 85.5067C118.817 85.6476 118.74 85.7434 118.628 85.7941C118.529 85.8486 118.409 85.8553 118.268 85.8144L117.5 85.5909C117.372 85.5536 117.274 85.4836 117.207 85.3807C117.153 85.2815 117.146 85.1615 117.187 85.0207L118.941 78.9907L113.756 77.4823C113.628 77.4451 113.532 77.3686 113.469 77.2529C113.414 77.1538 113.408 77.0338 113.449 76.8929L113.728 75.9327Z" fill="#D3C0E9"/>
<path d="M107.875 90.0507C108.433 89.0644 109.081 88.3125 109.818 87.7951C110.566 87.2843 111.403 87.0377 112.328 87.0554C113.264 87.0797 114.285 87.3739 115.39 87.9383C115.907 88.2156 116.398 88.4856 116.862 88.7483C117.338 89.0176 117.828 89.3025 118.332 89.6031C119.373 90.2537 120.136 90.9765 120.62 91.7716C121.11 92.5849 121.329 93.444 121.276 94.3489C121.229 95.2719 120.939 96.2033 120.407 97.1432C119.868 98.0947 119.219 98.8226 118.459 99.3269C117.703 99.8493 116.851 100.11 115.902 100.109C114.964 100.114 113.952 99.8326 112.864 99.2632C112.341 98.9974 111.841 98.7299 111.365 98.4607C110.901 98.198 110.42 97.9106 109.923 97.5984C108.863 96.9528 108.085 96.2292 107.589 95.4275C107.098 94.644 106.879 93.7998 106.931 92.895C106.995 91.9967 107.31 91.0486 107.875 90.0507ZM109.354 90.888C108.849 91.7815 108.705 92.6578 108.923 93.5168C109.135 94.3875 109.826 95.1843 110.995 95.9071C111.504 96.2258 111.961 96.5001 112.368 96.73C112.785 96.9664 113.256 97.2175 113.78 97.4832C114.594 97.9131 115.329 98.1301 115.985 98.134C116.635 98.1495 117.204 97.9966 117.693 97.6754C118.181 97.3542 118.592 96.8977 118.927 96.3059C119.249 95.7373 119.422 95.1611 119.446 94.5772C119.47 93.9933 119.312 93.4209 118.97 92.8601C118.622 92.3108 118.058 91.7922 117.277 91.3042C116.773 91.0037 116.312 90.7352 115.894 90.4988C115.488 90.2689 115.021 90.012 114.492 89.7281C113.271 89.0981 112.232 88.9163 111.376 89.1828C110.521 89.4493 109.847 90.0177 109.354 90.888Z" fill="#D3C0E9"/>
<path d="M103.824 96.4954C103.925 96.3887 104.032 96.3336 104.145 96.3302C104.268 96.336 104.377 96.3846 104.475 96.476L113.981 105.431C114.088 105.532 114.143 105.638 114.146 105.752C114.159 105.874 114.115 105.988 114.015 106.095L110.669 109.647C109.636 110.744 108.56 111.37 107.442 111.526C106.325 111.682 105.261 111.285 104.252 110.334C103.504 109.63 103.071 108.865 102.952 108.038C102.834 107.231 102.984 106.42 103.403 105.605L97.4186 104.199C97.3329 104.174 97.2659 104.138 97.2173 104.092C97.1397 104.019 97.1037 103.921 97.1095 103.798C97.1061 103.685 97.141 103.59 97.2142 103.512L97.8724 102.813C98.0279 102.648 98.1858 102.568 98.3463 102.573C98.5068 102.578 98.6581 102.592 98.8003 102.616L104.487 103.988L106.887 101.441L103.131 97.9027C103.034 97.8113 102.983 97.6996 102.979 97.5676C102.976 97.4546 103.024 97.3446 103.125 97.2379L103.824 96.4954ZM108.124 102.606L105.861 105.008C105.175 105.736 104.814 106.422 104.777 107.064C104.749 107.716 105.036 108.325 105.638 108.892C106.23 109.449 106.85 109.695 107.499 109.629C108.139 109.572 108.806 109.174 109.501 108.437L111.763 106.035L108.124 102.606Z" fill="#D3C0E9"/>
<path d="M95.3518 104.838C95.4648 104.767 95.5821 104.741 95.7037 104.759C95.821 104.796 95.915 104.871 95.9856 104.984L102.907 116.059C102.984 116.184 103.011 116.301 102.985 116.411C102.955 116.54 102.884 116.64 102.771 116.71L101.923 117.24C101.787 117.325 101.664 117.355 101.554 117.329C101.444 117.304 101.369 117.272 101.329 117.234L93.4517 112.629L94.121 121.738C94.1267 121.798 94.1224 121.879 94.1083 121.982C94.0829 122.092 94.0023 122.19 93.8666 122.275L93.0355 122.794C92.9111 122.872 92.7903 122.892 92.673 122.855C92.5514 122.837 92.4518 122.766 92.3741 122.641L85.453 111.566C85.3823 111.453 85.3618 111.332 85.3915 111.203C85.417 111.093 85.4919 110.999 85.6163 110.921L86.4473 110.402C86.5604 110.331 86.6777 110.305 86.7993 110.324C86.9166 110.36 87.0106 110.435 87.0812 110.548L92.2959 118.893L91.6731 111.594C91.6477 111.453 91.659 111.32 91.707 111.195C91.7622 111.082 91.8576 110.983 91.9933 110.899L92.519 110.57C92.666 110.478 92.8024 110.432 92.9282 110.432C93.0498 110.451 93.1741 110.499 93.3013 110.576L99.589 114.336L94.3744 105.991C94.3037 105.878 94.2832 105.757 94.3129 105.629C94.3384 105.518 94.4076 105.428 94.5207 105.357L95.3518 104.838Z" fill="#D3C0E9"/>
<path d="M76.693 117.635C77.0708 117.553 77.4424 117.568 77.8078 117.679C78.1761 117.804 78.4919 118.001 78.7554 118.271C79.0086 118.557 79.1764 118.889 79.2586 119.267C79.3436 119.658 79.3289 120.03 79.2145 120.382C79.09 120.75 78.8847 121.061 78.5986 121.314C78.3154 121.581 77.9849 121.755 77.6071 121.837C77.2162 121.922 76.8432 121.901 76.488 121.773C76.1356 121.659 75.8328 121.459 75.5796 121.173C75.3161 120.903 75.1419 120.572 75.0568 120.181C74.9746 119.803 74.9958 119.43 75.1204 119.062C75.2348 118.71 75.427 118.402 75.6972 118.138C75.9702 117.888 76.3021 117.72 76.693 117.635Z" fill="#D3C0E9"/>
<path d="M58.7748 114.286C59.9941 114.419 60.9834 114.755 61.7426 115.295C62.4885 115.832 63.0226 116.528 63.3449 117.381C63.6673 118.235 63.7895 119.201 63.7117 120.279C63.6655 120.823 63.6083 121.407 63.54 122.03C63.4718 122.653 63.3999 123.249 63.3242 123.817C63.1669 124.887 62.8385 125.803 62.3391 126.566C61.8397 127.33 61.1677 127.894 60.3231 128.257C59.4653 128.619 58.4266 128.733 57.2073 128.6C56.2927 128.5 55.5046 128.286 54.843 127.959C54.1814 127.632 53.6485 127.231 53.2443 126.758C52.8268 126.283 52.5278 125.767 52.3473 125.211C52.1653 124.668 52.0916 124.116 52.126 123.557C52.1258 123.436 52.1765 123.341 52.278 123.272C52.3662 123.201 52.47 123.172 52.5893 123.185L53.6827 123.305C53.802 123.318 53.9044 123.363 53.9899 123.439C54.0622 123.514 54.1088 123.64 54.1297 123.817C54.2418 124.875 54.5883 125.631 55.1691 126.083C55.7367 126.534 56.4844 126.811 57.4122 126.912C58.4725 127.028 59.3475 126.816 60.0373 126.274C60.7255 125.746 61.1687 124.822 61.3669 123.502C61.5256 122.42 61.6476 121.307 61.7326 120.162C61.8247 118.831 61.5927 117.827 61.0365 117.149C60.4789 116.484 59.6699 116.094 58.6096 115.978C57.6818 115.876 56.892 115.984 56.2402 116.302C55.5752 116.618 55.0734 117.28 54.7349 118.29C54.6763 118.458 54.6036 118.57 54.5168 118.628C54.4167 118.684 54.3071 118.705 54.1878 118.692L53.0943 118.573C52.975 118.56 52.88 118.509 52.8092 118.421C52.7251 118.331 52.6962 118.227 52.7226 118.109C52.81 117.556 53.0021 117.027 53.2987 116.523C53.5939 116.032 53.9966 115.6 54.507 115.227C55.0041 114.852 55.611 114.576 56.3278 114.4C57.0446 114.224 57.8602 114.185 58.7748 114.286Z" fill="#D3C0E9"/>
<path d="M47.2248 111.39C48.2883 111.782 49.1348 112.3 49.7644 112.943C50.3893 113.6 50.7677 114.386 50.8995 115.301C51.0266 116.229 50.9009 117.284 50.5224 118.466C50.3321 119.021 50.1448 119.549 49.9605 120.049C49.7715 120.562 49.5694 121.092 49.3541 121.637C48.8801 122.77 48.2898 123.64 47.5833 124.246C46.8597 124.861 46.0471 125.215 45.1457 125.309C44.2271 125.411 43.2611 125.276 42.2476 124.903C41.2217 124.525 40.3985 124.001 39.7782 123.332C39.1407 122.671 38.7459 121.872 38.5937 120.935C38.4369 120.011 38.5517 118.966 38.9382 117.801C39.1159 117.241 39.2993 116.705 39.4882 116.192C39.6726 115.692 39.8787 115.171 40.1065 114.629C40.5726 113.48 41.1612 112.595 41.8723 111.976C42.5663 111.365 43.3641 111.012 44.2655 110.918C45.1624 110.836 46.1488 110.994 47.2248 111.39ZM46.6372 112.985C45.6738 112.63 44.7859 112.63 43.9733 112.984C43.1482 113.334 42.4734 114.144 41.9486 115.414C41.7162 115.968 41.5194 116.464 41.3581 116.902C41.1922 117.352 41.0203 117.858 40.8426 118.417C40.5496 119.29 40.4542 120.05 40.5563 120.699C40.6459 121.343 40.8886 121.88 41.2844 122.31C41.6802 122.74 42.1971 123.072 42.8352 123.307C43.4483 123.533 44.0449 123.611 44.625 123.54C45.2051 123.47 45.7444 123.221 46.2429 122.793C46.7288 122.361 47.1495 121.721 47.505 120.871C47.7203 120.325 47.9109 119.827 48.0768 119.377C48.2381 118.939 48.4162 118.436 48.6111 117.868C49.0357 116.561 49.0475 115.507 48.6464 114.706C48.2453 113.904 47.5756 113.331 46.6372 112.985Z" fill="#D3C0E9"/>
<path d="M40.2053 108.448C40.3263 108.53 40.3972 108.627 40.418 108.739C40.4313 108.861 40.4003 108.977 40.3249 109.087L32.945 119.862C32.8621 119.983 32.7651 120.054 32.6539 120.075C32.5351 120.106 32.4153 120.081 32.2943 119.998L31.5352 119.478C31.4032 119.388 31.3268 119.287 31.306 119.176C31.2777 119.076 31.2693 119.005 31.2809 118.965L31.5664 106.797L25.9156 115.048C25.8327 115.169 25.7357 115.24 25.6245 115.26C25.5057 115.292 25.3858 115.267 25.2648 115.184L24.4728 114.641C24.3518 114.558 24.2846 114.456 24.2714 114.334C24.2396 114.215 24.2651 114.095 24.348 113.974L31.7166 103.216C31.7919 103.106 31.8945 103.038 32.0242 103.014C32.143 102.982 32.2573 103.004 32.3673 103.079L33.1594 103.622C33.2804 103.705 33.3513 103.802 33.3721 103.913C33.3819 104.017 33.3903 104.087 33.3972 104.124L33.1518 116.198L38.7573 108.013C38.8327 107.903 38.9352 107.836 39.065 107.812C39.1762 107.791 39.2923 107.822 39.4133 107.905L40.2053 108.448Z" fill="#D3C0E9"/>
<path d="M28.2441 98.6665C28.3349 98.7642 28.3827 98.8745 28.3876 98.9973C28.3737 99.1194 28.3178 99.2259 28.2201 99.3166L19.6038 107.32L22.2172 110.134C22.308 110.231 22.3558 110.342 22.3607 110.464C22.3468 110.586 22.2909 110.693 22.1933 110.784L21.5778 111.355C21.4703 111.455 21.3601 111.503 21.247 111.499C21.1151 111.494 21.0038 111.443 20.913 111.345L14.3522 104.282C14.2524 104.175 14.2095 104.06 14.2234 103.938C14.2185 103.815 14.2698 103.704 14.3772 103.604L14.9927 103.032C15.0904 102.941 15.2052 102.898 15.3371 102.903C15.4501 102.907 15.5566 102.963 15.6564 103.071L18.2562 105.869L26.8726 97.8659C26.9703 97.7752 27.0851 97.7323 27.217 97.7371C27.33 97.7413 27.4365 97.7971 27.5363 97.9046L28.2441 98.6665Z" fill="#D3C0E9"/>
<path d="M24.66 94.7169C24.7141 94.8088 24.727 94.9095 24.6986 95.019C24.6702 95.1286 24.6101 95.2104 24.5182 95.2645C24.4607 95.2983 24.3941 95.3297 24.3184 95.3588L10.6505 97.647C10.5085 97.6687 10.3794 97.6596 10.2631 97.6197C10.1468 97.5799 10.0414 97.4795 9.94669 97.3186L9.2569 96.1465C9.16899 95.9971 9.13584 95.8619 9.15745 95.7409C9.17229 95.6084 9.22365 95.4854 9.31151 95.3718L17.9582 84.5515C18.0136 84.4879 18.0701 84.4392 18.1275 84.4054C18.2194 84.3513 18.3202 84.3384 18.4297 84.3668C18.5392 84.3952 18.621 84.4553 18.6751 84.5473L19.1925 85.4263C19.2736 85.5642 19.3 85.6879 19.2716 85.7974C19.2365 85.8955 19.197 85.9729 19.153 86.0297L17.2633 88.4181L20.5905 94.0717L23.5961 93.5793C23.6603 93.557 23.7471 93.56 23.8567 93.5884C23.9662 93.6168 24.0615 93.6999 24.1427 93.8378L24.66 94.7169ZM18.814 94.4442L16.0751 89.7903L11.3255 95.7182L18.814 94.4442Z" fill="#D3C0E9"/>
<path d="M17.2511 78.556C17.6027 79.7312 17.6778 80.7734 17.4766 81.6825C17.2716 82.5789 16.8387 83.3416 16.1779 83.9707C15.5172 84.5998 14.6752 85.0882 13.6519 85.4361C13.132 85.6055 12.5719 85.78 11.9715 85.9596C11.3711 86.1392 10.7944 86.3048 10.2412 86.4563C9.19508 86.7275 8.22316 86.7816 7.32548 86.6187C6.42781 86.4558 5.64717 86.0561 4.98358 85.4196C4.31616 84.7703 3.80668 83.858 3.45512 82.6828C3.19145 81.8014 3.08162 80.9923 3.12562 80.2554C3.16962 79.5186 3.33105 78.8719 3.60989 78.3153C3.88492 77.7459 4.24352 77.2698 4.6857 76.8871C5.11511 76.5081 5.59425 76.2256 6.12311 76.0396C6.23426 75.9924 6.34153 76.0021 6.44492 76.0686C6.54449 76.1223 6.61148 76.2066 6.64587 76.3216L6.96112 77.3754C6.99551 77.4904 6.99415 77.6021 6.95703 77.7107C6.91608 77.8064 6.81831 77.8983 6.66371 77.9863C5.7323 78.5015 5.17117 79.1147 4.98032 79.8259C4.78565 80.5243 4.82206 81.3206 5.08955 82.2148C5.39525 83.2367 5.9317 83.96 6.69891 84.3846C7.45334 84.813 8.4769 84.8617 9.76959 84.5307C10.8285 84.2557 11.9016 83.9347 12.9887 83.5678C14.2508 83.1346 15.0858 82.5299 15.4939 81.7537C15.8891 80.9814 15.9339 80.0843 15.6282 79.0624C15.3607 78.1682 14.9538 77.4827 14.4076 77.0059C13.8575 76.5163 13.0518 76.312 11.9905 76.3929C11.813 76.4042 11.6808 76.3811 11.594 76.3236C11.5034 76.2533 11.4409 76.1607 11.4065 76.0457L11.0912 74.9918C11.0569 74.8769 11.0665 74.7696 11.1202 74.67C11.1701 74.5577 11.2545 74.4907 11.3733 74.4691C11.9174 74.3341 12.4794 74.3052 13.0591 74.3823C13.6261 74.4632 14.1808 74.6661 14.7233 74.9909C15.262 75.3029 15.7521 75.7548 16.1935 76.3464C16.6349 76.9381 16.9874 77.6746 17.2511 78.556Z" fill="#D3C0E9"/>
<path d="M15.3067 68.2869C15.3153 68.4199 15.2827 68.5356 15.2089 68.6339C15.1209 68.7198 15.0104 68.767 14.8773 68.7756L3.14191 69.5355L3.39003 73.3674C3.39865 73.5005 3.36605 73.6162 3.29225 73.7145C3.20428 73.8003 3.09377 73.8476 2.96072 73.8562L2.12247 73.9105C1.97611 73.9199 1.86043 73.8873 1.77543 73.8127C1.67626 73.7256 1.62237 73.6155 1.61375 73.4824L0.990866 63.8626C0.98139 63.7162 1.02064 63.6001 1.10861 63.5142C1.18241 63.4159 1.29249 63.362 1.43885 63.3526L2.27709 63.2983C2.41015 63.2897 2.52626 63.3289 2.62543 63.416C2.71043 63.4907 2.75767 63.6012 2.76715 63.7476L3.01398 67.5596L14.7494 66.7998C14.8825 66.7911 14.9986 66.8304 15.0977 66.9175C15.1827 66.9922 15.23 67.1027 15.2395 67.249L15.3067 68.2869Z" fill="#D3C0E9"/>
<path d="M16.1631 54.7505C16.1237 54.8918 16.0548 54.9902 15.9562 55.0458C15.8449 55.0979 15.725 55.106 15.5965 55.0702L3.01507 51.5673C2.87378 51.5279 2.77533 51.459 2.71972 51.3605C2.65126 51.2584 2.63671 51.1367 2.67605 50.9954L4.86482 43.1344C4.90416 42.9931 4.97952 42.8964 5.09089 42.8444C5.18942 42.7888 5.30933 42.7807 5.45062 42.82L6.22131 43.0346C6.3626 43.0739 6.46105 43.1428 6.51666 43.2414C6.57227 43.3399 6.5804 43.4598 6.54106 43.6011L4.74927 50.0363L9.23852 51.2862L10.923 45.2364C10.9624 45.0951 11.0377 44.9984 11.1491 44.9464C11.2476 44.8908 11.3675 44.8826 11.5088 44.922L12.2795 45.1365C12.4079 45.1723 12.5064 45.2412 12.5749 45.3433C12.6305 45.4419 12.6386 45.5618 12.5993 45.7031L10.9148 51.7529L16.1169 53.2013C16.2453 53.2371 16.342 53.3124 16.4069 53.4274C16.4625 53.5259 16.4706 53.6458 16.4313 53.7871L16.1631 54.7505Z" fill="#D3C0E9"/>
<path d="M21.8557 40.5642C21.3088 41.5568 20.6698 42.316 19.9386 42.8418C19.1958 43.3612 18.362 43.6173 17.4373 43.6102C16.5009 43.5967 15.4769 43.3141 14.365 42.7624C13.8448 42.491 13.3511 42.2266 12.8839 41.9693C12.4051 41.7055 11.912 41.4262 11.4046 41.1314C10.3559 40.4928 9.5848 39.7787 9.09119 38.9892C8.59234 38.1815 8.36398 37.325 8.40612 36.4196C8.44301 35.4961 8.72205 34.5614 9.24322 33.6155C9.77082 32.6579 10.4119 31.9226 11.1664 31.4097C11.9157 30.8787 12.7649 30.6083 13.7142 30.5984C14.6517 30.5822 15.6674 30.8525 16.7611 31.4094C17.2878 31.6691 17.7905 31.9309 18.2694 32.1947C18.7365 32.452 19.2205 32.7339 19.7215 33.0404C20.7883 33.6738 21.5743 34.3885 22.0796 35.1844C22.5797 35.9623 22.8086 36.8039 22.7665 37.7093C22.7126 38.6082 22.4091 39.5599 21.8557 40.5642ZM20.3668 39.7439C20.8622 38.8446 20.9957 37.9668 20.7674 37.1103C20.5454 36.2421 19.8459 35.4533 18.6688 34.7439C18.1561 34.431 17.6954 34.1619 17.2867 33.9367C16.8663 33.7051 16.3927 33.4594 15.866 33.1997C15.0473 32.7791 14.3097 32.5706 13.6531 32.5742C13.003 32.5662 12.4357 32.7255 11.9512 33.0523C11.4667 33.3791 11.0603 33.8402 10.7322 34.4358C10.4169 35.0081 10.2506 35.5862 10.2332 36.1704C10.2159 36.7545 10.381 37.325 10.7288 37.882C11.083 38.4272 11.6533 38.9393 12.4398 39.4183C12.9472 39.7131 13.4111 39.9763 13.8315 40.2079C14.2403 40.4331 14.7106 40.6846 15.2426 40.9625C16.4712 41.5785 17.5117 41.7483 18.3642 41.4721C19.2167 41.1958 19.8842 40.6197 20.3668 39.7439Z" fill="#D3C0E9"/>
<path d="M25.836 34.0734C25.7367 34.1813 25.6305 34.2376 25.5175 34.2422C25.3946 34.2379 25.2841 34.1905 25.1861 34.1002L15.5786 25.2537C15.4707 25.1543 15.4145 25.0481 15.4098 24.9351C15.3953 24.813 15.4378 24.698 15.5371 24.5901L18.8428 21.0003C19.8634 19.892 20.9317 19.2535 22.0477 19.0848C23.1636 18.9161 24.2316 19.3014 25.2517 20.2407C26.007 20.9362 26.4488 21.6964 26.5771 22.5215C26.7047 23.3277 26.5637 24.1403 26.1539 24.9593L32.1539 26.2972C32.2398 26.322 32.3073 26.3569 32.3564 26.4021C32.4348 26.4743 32.4719 26.5719 32.4675 26.6947C32.4722 26.8078 32.4384 26.9035 32.3661 26.982L31.7158 27.6882C31.5623 27.8549 31.4052 27.9369 31.2447 27.9341C31.0842 27.9313 30.9327 27.9186 30.7902 27.8962L25.0887 26.5884L22.7179 29.1631L26.5137 32.6584C26.6118 32.7487 26.6636 32.8598 26.669 32.9917C26.6737 33.1047 26.6263 33.2152 26.527 33.3231L25.836 34.0734ZM21.4673 28.0116L23.7027 25.584C24.3801 24.8484 24.7338 24.1591 24.7639 23.5163C24.7842 22.8643 24.4903 22.2584 23.8822 21.6984C23.2839 21.1475 22.6607 20.909 22.0127 20.9829C21.3736 21.0469 20.7109 21.4517 20.0245 22.1971L17.7891 24.6247L21.4673 28.0116Z" fill="#D3C0E9"/>
<path d="M34.2109 25.6349C34.0986 25.7068 33.9816 25.7343 33.8599 25.7173C33.7421 25.6819 33.6473 25.6081 33.5754 25.4958L26.5287 14.5C26.4495 14.3765 26.4221 14.2595 26.4463 14.149C26.4745 14.02 26.5447 13.9196 26.657 13.8477L27.4989 13.3081C27.6337 13.2218 27.7563 13.1907 27.8668 13.2149C27.9773 13.2391 28.0526 13.2701 28.0926 13.3078L36.0221 17.823L35.2492 8.72162C35.2429 8.66233 35.2462 8.58102 35.2592 8.47769C35.2834 8.36717 35.3628 8.26875 35.4975 8.18242L36.3226 7.65367C36.4461 7.57453 36.5667 7.55267 36.6844 7.58809C36.8062 7.60509 36.9066 7.67533 36.9858 7.79882L44.0325 18.7946C44.1044 18.9069 44.1263 19.0275 44.098 19.1564C44.0739 19.2669 44 19.3618 43.8765 19.4409L43.0514 19.9697C42.9391 20.0416 42.8221 20.0691 42.7004 20.0521C42.5827 20.0166 42.4879 19.9428 42.4159 19.8305L37.1066 11.5458L37.8124 18.8374C37.8395 18.9784 37.8297 19.1114 37.783 19.2363C37.7292 19.35 37.6349 19.45 37.5002 19.5363L36.9782 19.8708C36.8322 19.9643 36.6964 20.0118 36.5706 20.0132C36.4489 19.9962 36.3239 19.9496 36.1959 19.8733L29.8658 16.1859L35.1751 24.4707C35.247 24.5829 35.2689 24.7035 35.2407 24.8325C35.2165 24.943 35.1483 25.0342 35.036 25.1061L34.2109 25.6349Z" fill="#D3C0E9"/>
<path d="M52.7149 12.6262C52.3381 12.7128 51.9663 12.7024 51.5997 12.5951C51.23 12.4748 50.9119 12.2811 50.6453 12.014C50.3888 11.731 50.2172 11.401 50.1306 11.0242C50.041 10.6343 50.0514 10.2626 50.1617 9.90889C50.282 9.53924 50.4836 9.22613 50.7667 8.96957C51.0468 8.70001 51.3753 8.52194 51.7521 8.43536C52.1419 8.3458 52.5152 8.36266 52.8719 8.48593C53.2255 8.5962 53.5307 8.79288 53.7872 9.07595C54.0538 9.34304 54.2319 9.67151 54.3214 10.0614C54.408 10.4382 54.3912 10.8115 54.2709 11.1811C54.1606 11.5348 53.9719 11.8449 53.7048 12.1115C53.4348 12.365 53.1048 12.5366 52.7149 12.6262Z" fill="#D3C0E9"/>
</svg>
