<svg width="362" height="615" viewBox="0 0 362 615" fill="none" xmlns="http://www.w3.org/2000/svg">
<g opacity="0.4">
<path d="M321.252 389.75C366.699 382.133 397.367 339.116 389.75 293.668C382.133 248.221 339.116 217.553 293.669 225.17C248.221 232.787 217.554 275.804 225.17 321.251C232.787 366.699 275.804 397.366 321.252 389.75Z" stroke="#D3C0E9" stroke-width="2" stroke-linecap="round" stroke-linejoin="round"/>
<path d="M338.607 467.444C335.851 467.906 333.073 468.372 330.378 468.823L270.612 516.678C243.497 512.346 217.444 502.935 193.819 488.94L181.16 414.92C179.313 412.861 177.545 410.767 175.87 408.594L104.048 382.244C94.5057 356.988 90.0008 330.109 90.7872 303.122L150.049 254.908C150.99 252.318 151.975 249.742 152.988 247.203L140.905 173.087C158.648 152.107 180.195 134.668 204.413 121.687L276.413 147.458C279.17 146.996 281.947 146.53 284.642 146.079L344.306 98.2414C371.42 102.574 397.474 111.984 421.098 125.98L433.757 199.999C435.604 202.059 437.372 204.152 439.048 206.325L510.825 232.662C520.367 257.918 524.872 284.797 524.086 311.784L464.824 359.998C463.883 362.588 462.898 365.164 461.885 367.703L473.968 441.819C456.239 462.799 434.707 480.243 410.505 493.233L338.607 467.444Z" stroke="#D3C0E9" stroke-width="2" stroke-linecap="round" stroke-linejoin="round"/>
</g>
</svg>
