<svg width="48" height="48" viewBox="0 0 48 48" fill="none" xmlns="http://www.w3.org/2000/svg">
<rect width="48" height="48" rx="24" fill="#030304"/>
<path d="M38.8615 21.6935L38.6893 21.0373H24.4556L24.4556 26.962H32.9691C32.494 28.7699 31.414 30.3695 29.9018 31.5047C28.3896 32.64 26.5326 33.2455 24.6278 33.2243C22.142 33.206 19.7532 32.2762 17.9319 30.6181C17.0361 29.7528 16.3232 28.7228 15.834 27.5871C15.3449 26.4514 15.0891 25.2323 15.0813 23.9997C15.1102 21.5238 16.1104 19.1538 17.8745 17.3812C19.6711 15.7132 22.0575 14.7925 24.5322 14.8125C26.6517 14.8285 28.6924 15.6018 30.2716 16.9874L34.4804 12.7501C31.7064 10.3246 28.1158 8.98917 24.3983 9.00027C22.3532 8.98836 20.3258 9.37134 18.4317 10.1273C16.5377 10.8833 14.8142 11.9975 13.3595 13.4063C10.5926 16.223 9.03253 19.9719 9.0005 23.8817C8.96847 27.7914 10.4669 31.5644 13.1873 34.4242C14.6946 35.8959 16.486 37.0584 18.4569 37.8439C20.4278 38.6294 22.5386 39.0221 24.6661 38.999C26.5954 39.0131 28.5075 38.6431 30.2866 37.9115C32.0657 37.1799 33.6747 36.102 35.0161 34.743C37.6485 31.9063 39.0724 28.1894 38.9954 24.3559C39.0153 23.4664 38.9705 22.5767 38.8615 21.6935Z" fill="#FBF7FA"/>
</svg>
