<svg width="40" height="40" viewBox="0 0 40 40" fill="none" xmlns="http://www.w3.org/2000/svg">
<path d="M16.25 9.99992C16.2495 9.06486 15.9869 8.14867 15.4918 7.3554C14.9968 6.56212 14.2893 5.92356 13.4495 5.51222C12.6098 5.10088 11.6716 4.93326 10.7413 5.02839C9.81114 5.12351 8.92624 5.47758 8.18715 6.05037C7.44807 6.62316 6.88441 7.39173 6.56019 8.26878C6.23598 9.14583 6.16419 10.0962 6.353 11.012C6.5418 11.9278 6.98363 12.7723 7.6283 13.4496C8.27297 14.1269 9.09464 14.6099 10 14.8437V25.1562C8.82169 25.4604 7.79478 26.184 7.11176 27.1912C6.42874 28.1984 6.13652 29.4202 6.28986 30.6274C6.44321 31.8347 7.03159 32.9446 7.94472 33.7491C8.85785 34.5536 10.033 34.9974 11.25 34.9974C12.467 34.9974 13.6422 34.5536 14.5553 33.7491C15.4684 32.9446 16.0568 31.8347 16.2102 30.6274C16.3635 29.4202 16.0713 28.1984 15.3883 27.1912C14.7052 26.184 13.6783 25.4604 12.5 25.1562V14.8437C13.5729 14.565 14.5231 13.9383 15.2017 13.0618C15.8803 12.1853 16.249 11.1084 16.25 9.99992ZM8.75001 9.99992C8.75001 9.50547 8.89663 9.02212 9.17134 8.611C9.44604 8.19988 9.83649 7.87944 10.2933 7.69022C10.7501 7.50101 11.2528 7.4515 11.7377 7.54796C12.2227 7.64442 12.6681 7.88252 13.0178 8.23216C13.3674 8.58179 13.6055 9.02725 13.702 9.5122C13.7984 9.99715 13.7489 10.4998 13.5597 10.9566C13.3705 11.4134 13.0501 11.8039 12.6389 12.0786C12.2278 12.3533 11.7445 12.4999 11.25 12.4999C10.587 12.4999 9.95109 12.2365 9.48224 11.7677C9.0134 11.2988 8.75001 10.663 8.75001 9.99992ZM13.75 29.9999C13.75 30.4944 13.6034 30.9777 13.3287 31.3889C13.054 31.8 12.6635 32.1204 12.2067 32.3096C11.7499 32.4988 11.2472 32.5484 10.7623 32.4519C10.2773 32.3554 9.83188 32.1173 9.48224 31.7677C9.13261 31.4181 8.89451 30.9726 8.79805 30.4877C8.70159 30.0027 8.75109 29.5 8.94031 29.0432C9.12953 28.5864 9.44996 28.196 9.86109 27.9213C10.2722 27.6465 10.7556 27.4999 11.25 27.4999C11.9131 27.4999 12.5489 27.7633 13.0178 28.2322C13.4866 28.701 13.75 29.3369 13.75 29.9999ZM32.5 25.1562V17.2859C32.5025 16.7928 32.4071 16.3041 32.2194 15.8481C32.0316 15.3921 31.7552 14.978 31.4063 14.6296L25.5172 8.74992H30C30.3315 8.74992 30.6495 8.61823 30.8839 8.38381C31.1183 8.14939 31.25 7.83144 31.25 7.49992C31.25 7.1684 31.1183 6.85046 30.8839 6.61604C30.6495 6.38162 30.3315 6.24992 30 6.24992H22.5C22.1685 6.24992 21.8505 6.38162 21.6161 6.61604C21.3817 6.85046 21.25 7.1684 21.25 7.49992V14.9999C21.25 15.3314 21.3817 15.6494 21.6161 15.8838C21.8505 16.1182 22.1685 16.2499 22.5 16.2499C22.8315 16.2499 23.1495 16.1182 23.3839 15.8838C23.6183 15.6494 23.75 15.3314 23.75 14.9999V10.5171L29.6344 16.4062C29.7504 16.5223 29.8424 16.6602 29.9052 16.812C29.9679 16.9637 30.0001 17.1263 30 17.2905V25.1562C28.8217 25.4604 27.7948 26.184 27.1118 27.1912C26.4287 28.1984 26.1365 29.4202 26.2899 30.6274C26.4432 31.8347 27.0316 32.9446 27.9447 33.7491C28.8579 34.5536 30.033 34.9974 31.25 34.9974C32.467 34.9974 33.6422 34.5536 34.5553 33.7491C35.4684 32.9446 36.0568 31.8347 36.2102 30.6274C36.3635 29.4202 36.0713 28.1984 35.3883 27.1912C34.7052 26.184 33.6783 25.4604 32.5 25.1562ZM31.25 32.4999C30.7556 32.4999 30.2722 32.3533 29.8611 32.0786C29.45 31.8039 29.1295 31.4135 28.9403 30.9566C28.7511 30.4998 28.7016 29.9972 28.798 29.5122C28.8945 29.0272 29.1326 28.5818 29.4822 28.2322C29.8319 27.8825 30.2773 27.6444 30.7623 27.548C31.2472 27.4515 31.7499 27.501 32.2067 27.6902C32.6635 27.8794 33.054 28.1999 33.3287 28.611C33.6034 29.0221 33.75 29.5055 33.75 29.9999C33.75 30.663 33.4866 31.2989 33.0178 31.7677C32.5489 32.2365 31.9131 32.4999 31.25 32.4999Z" fill="#FBF7FA"/>
</svg>
