<svg width="501" height="386" viewBox="0 0 501 386" fill="none" xmlns="http://www.w3.org/2000/svg">
<g opacity="0.4">
<path d="M75.7861 474.133C54.1426 458.703 59.9059 417.696 46.6538 396.468C32.914 374.555 -6.19894 361.431 -10.42 336.245C-14.641 311.06 18.0559 285.901 23.9007 260.706C29.511 236.337 10.6895 199.43 26.1196 177.786C41.5497 156.143 82.5771 161.903 103.785 148.654C125.798 134.897 138.821 95.8012 164.007 91.5801C189.193 87.3591 214.352 120.056 239.547 125.901C263.935 131.508 300.823 112.69 322.466 128.12C344.11 143.55 338.347 184.557 351.599 205.785C365.355 227.798 404.451 240.821 408.672 266.007C412.894 291.193 380.197 316.352 374.352 341.547C368.745 365.935 387.563 402.823 372.133 424.466C356.703 446.11 315.695 440.347 294.468 453.599C272.555 467.339 259.431 506.452 234.245 510.673C209.059 514.894 183.901 482.197 158.706 476.352C134.337 470.742 97.4296 489.563 75.7861 474.133Z" stroke="#D3C0E9" stroke-width="2" stroke-linecap="round" stroke-linejoin="round"/>
</g>
</svg>
